<?xml version="1.0" standalone="no"?>
<!DOCTYPE svg PUBLIC "-//W3C//DTD SVG 20010904//EN"
 "http://www.w3.org/TR/2001/REC-SVG-20010904/DTD/svg10.dtd">
<svg version="1.0" xmlns="http://www.w3.org/2000/svg"
 width="657.000000pt" height="174.000000pt" viewBox="0 0 657.000000 174.000000"
 preserveAspectRatio="xMidYMid meet">
<metadata>
Created by potrace 1.16, written by Peter Selinger 2001-2019
</metadata>
<g transform="translate(0.000000,174.000000) scale(0.100000,-0.100000)"
fill="#000000" stroke="none">
<path d="M1377 1403 c-4 -3 -7 -44 -7 -90 l0 -83 180 0 180 0 0 -565 0 -565
100 0 100 0 0 565 0 565 180 0 180 0 0 90 0 90 -453 0 c-250 0 -457 -3 -460
-7z"/>
<path d="M4030 1315 l0 -95 95 0 96 0 -3 93 -3 92 -92 3 -93 3 0 -96z"/>
<path d="M5360 1170 l0 -140 -50 0 -50 0 0 -69 0 -70 48 -3 47 -3 5 -325 c3
-226 9 -331 17 -346 21 -37 91 -92 130 -103 21 -6 68 -11 106 -11 l67 0 0 90
0 90 -55 0 c-87 0 -86 -4 -83 326 l3 279 68 3 67 3 0 69 0 70 -70 0 -70 0 0
140 0 140 -90 0 -90 0 0 -140z"/>
<path d="M2363 1019 c-44 -14 -77 -33 -113 -67 l-51 -47 70 -52 c75 -56 86
-61 94 -40 11 29 73 47 161 47 145 0 186 -29 194 -139 l5 -69 -179 -4 c-160
-4 -185 -7 -231 -27 -98 -43 -154 -130 -156 -241 -2 -85 16 -133 70 -191 58
-62 125 -90 229 -97 107 -6 175 10 225 56 l39 34 0 -41 0 -41 90 0 90 0 0 348
c0 387 -5 422 -62 488 -17 19 -48 44 -69 55 -100 51 -293 64 -406 28z m353
-600 c-9 -91 -20 -114 -64 -135 -50 -23 -205 -24 -249 -1 -93 49 -98 154 -9
193 21 9 77 13 180 14 l149 0 -7 -71z"/>
<path d="M4640 1024 c-30 -8 -76 -29 -101 -46 -145 -98 -156 -321 -21 -424 54
-41 118 -60 227 -69 147 -11 173 -16 199 -40 45 -42 27 -123 -35 -155 -94 -51
-276 -21 -381 61 l-40 32 -65 -65 -66 -66 73 -51 c179 -125 401 -147 578 -57
100 51 146 128 145 241 -1 112 -42 189 -122 229 -55 29 -79 33 -228 46 -64 5
-125 16 -142 25 -58 30 -67 86 -22 137 l29 33 109 0 c106 0 109 -1 175 -37
l67 -37 57 65 c54 61 56 65 40 83 -28 31 -128 79 -197 96 -80 18 -207 18 -279
-1z"/>
<path d="M5990 1018 c-63 -22 -143 -76 -154 -104 -3 -8 22 -33 64 -64 l69 -51
37 28 c33 25 47 28 127 32 162 6 207 -24 207 -139 l0 -68 -172 -4 c-153 -4
-179 -7 -225 -27 -139 -61 -203 -236 -135 -367 51 -98 147 -153 278 -162 101
-6 166 9 217 49 l37 30 0 -36 0 -35 96 0 95 0 -3 368 -3 367 -26 50 c-52 102
-145 145 -329 152 -101 3 -123 1 -180 -19z m350 -595 c0 -118 -37 -152 -167
-156 -103 -3 -143 7 -181 44 -55 53 -39 134 32 165 21 9 76 13 174 14 l142 0
0 -67z"/>
<path d="M3060 1025 c0 -3 67 -106 149 -229 l150 -224 -160 -236 -160 -236
114 0 113 0 95 150 c52 82 97 149 100 150 4 0 51 -67 104 -150 l97 -150 109 0
c60 0 109 2 109 5 0 3 -67 105 -148 228 -82 122 -151 227 -155 233 -3 6 61
111 144 235 l149 224 -102 3 c-56 1 -107 1 -113 -2 -7 -2 -47 -62 -90 -133
-43 -70 -84 -136 -90 -146 -10 -15 -24 3 -104 133 l-93 150 -109 0 c-60 0
-109 -2 -109 -5z"/>
<path d="M4030 565 l0 -465 95 0 95 0 0 465 0 465 -95 0 -95 0 0 -465z"/>
</g>
</svg>
